<?xml version="1.0" encoding="UTF-8"?>
<svg id="Layer_1" data-name="Layer 1" xmlns="http://www.w3.org/2000/svg" viewBox="0 0 413.76 413.75">
  <defs>
    <style>
      .cls-1 {
        fill: #d71922;
      }

      .cls-2 {
        fill: #1d1d1b;
      }
    </style>
  </defs>
  <g id="Studios">
    <g id="Red_Studios" data-name="Red Studios">
      <path class="cls-1" d="m142.89,187.96h-12.84v23.58c0,6.8-3.63,8.74-7.35,8.74-6.88,0-6.88-5.64-6.88-8.58v-23.74h-12.83v25.67c0,5.88.46,8.97,3.86,13.22,3.79,4.79,9.97,5.41,12.6,5.41,3.25,0,8.5-.46,11.14-5.95h.15v4.56h12.14v-42.91Zm-49.17-14.3h-12.83v14.3h-6.34v9.74h6.34v33.17h12.83v-33.17h6.18v-9.74h-6.18v-14.3Zm-21.49,16.7c-.15-3.25-.39-7.11-3.79-11.29-3.71-4.41-9.82-6.49-15.46-6.49-9.59,0-20.03,6.11-20.03,16.85s9.98,14.77,14,16.39c8.81,3.71,11.21,4.64,11.21,8.43,0,2.63-2.09,5.49-5.57,5.49-1.85,0-5.95-1.16-5.95-7.81h-14.54v1.86c0,7.35,4.1,18.17,20.64,18.17,15.15,0,19.95-9.2,19.95-17.55,0-6.65-2.71-11.6-13.38-16.39-10.28-4.64-11.83-5.34-11.83-8.74,0-2.71,2.47-4.48,5.03-4.48,4.48,0,4.95,3.63,5.26,5.57h14.46Z"/>
      <path class="cls-1" d="m159.3,209.22c0-4.95,3.48-10.75,10.9-10.75s10.82,5.57,10.82,10.75c0,4.48-2.94,11.05-10.98,11.05-6.03,0-10.75-4.41-10.75-11.05m33.86-35.56h-12.83v17.94c-1.39-1.39-5.03-5.1-12.6-5.1-10.9,0-21.26,8.27-21.26,22.81,0,12.91,8.5,22.96,21.5,22.96,8.66,0,11.75-4.25,12.83-6.03h.16v4.64h12.21v-57.21Z"/>
      <path class="cls-1" d="m293.74,200.02c-1.08-11.29-10.82-13.53-16.47-13.53-8.89,0-16.62,5.64-16.62,14.15,0,5.8,4.64,9.43,10.21,11.21,8.19,3.17,11.36,3.56,11.36,6.88,0,2.09-2.32,3.32-4.48,3.32-.54,0-4.33,0-4.87-3.94h-12.76c1.16,11.29,10.98,14.23,17.47,14.23,9.51,0,17.47-5.57,17.47-14.61s-7.73-11.44-15-13.45c-3.4-1-6.57-2.32-6.57-4.64,0-1.16.93-2.86,3.63-2.86,3.79,0,3.94,2.32,4.02,3.25h12.6Zm-67.65,9.36c0-6.26,4.72-10.82,10.28-10.82s10.28,4.56,10.28,10.82-4.72,10.82-10.28,10.82-10.28-4.56-10.28-10.82m-12.83,0c0,10.52,7.5,22.81,23.12,22.81s23.12-12.29,23.12-22.81-7.5-22.81-23.12-22.81-23.12,12.29-23.12,22.81m-3.4-35.72h-12.83v9.74h12.83v-9.74Zm0,14.3h-12.83v42.91h12.83v-42.91Z"/>
    </g>
    <polygon class="cls-2" points="141.66 413.75 0 272.09 0 0 272.1 0 413.76 141.65 263.61 141.65 263.61 132.98 392.83 132.98 268.51 8.67 8.67 8.67 8.67 268.5 132.99 392.82 132.99 264.66 141.66 264.66 141.66 413.75"/>
    <g>
      <path class="cls-2" d="m50.58,118.17h5.75c6.09,0,10.17,2.75,10.17,8.34,0,3-1.08,8.84-10.34,8.84h-5.59v-17.18Zm-15.09,47.86h15.09v-19.93h.17l14.26,19.93h18.01l-16.76-21.01c11.67-1.92,15.34-12.34,15.34-19.43,0-6.34-2.5-12.84-7.59-16.84-4-3.09-8.17-4.42-19.01-4.42h-19.51v61.7Z"/>
      <path class="cls-2" d="m147.62,143.02c0-5.25,3.5-11.92,11.42-11.92s11.67,6.17,11.67,11.76c0,4.5-2.92,11.84-11.59,11.84s-11.51-7.34-11.51-11.67m36.94-23.26h-13.84v4.92h-.17c-1.67-2.83-5.92-6.5-13.51-6.5-12.34,0-23.26,9.51-23.26,24.68,0,13.26,8.58,24.76,23.26,24.76,5.42,0,11.17-2.09,13.51-6.59h.17v5h13.84v-46.27Z"/>
      <path class="cls-2" d="m200.8,142.69c0-5.34,3.75-11.59,11.76-11.59s11.67,6,11.67,11.59c0,4.84-3.17,11.92-11.84,11.92-6.5,0-11.59-4.76-11.59-11.92m36.52-38.35h-13.84v19.34c-1.5-1.5-5.42-5.5-13.59-5.5-11.76,0-22.93,8.92-22.93,24.6,0,13.92,9.17,24.76,23.18,24.76,9.34,0,12.67-4.59,13.84-6.5h.17v5h13.17v-61.7Z"/>
      <path class="cls-2" d="m95.18,142.85c0-6.75,5.08-11.67,11.09-11.67s11.09,4.92,11.09,11.67-5.09,11.67-11.09,11.67-11.09-4.92-11.09-11.67m-13.84,0c0,11.34,8.09,24.59,24.93,24.59s24.93-13.26,24.93-24.59-8.09-24.6-24.93-24.6-24.93,13.26-24.93,24.6"/>
    </g>
    <polygon class="cls-2" points="280.78 52.92 271.94 79.77 271.78 79.77 262.52 52.92 247.76 52.92 264.94 96.86 257.6 114.62 272.28 114.62 295.46 52.92 280.78 52.92"/>
    <g>
      <path class="cls-2" d="m215.98,70.93c.58-2.75,3.34-7.92,10.51-7.92s9.92,5.17,10.51,7.92h-21.01Zm19.09,13.76c-1.92,2.42-4.17,4.33-8.42,4.33-5.42,0-10-3.25-10.84-8.75h34.69c.17-1.08.33-1.83.33-3.67,0-14.09-10.34-25.26-24.43-25.26s-24.26,11.92-24.26,24.85c0,13.76,11.26,24.51,24.51,24.51,4.75,0,9.34-1.42,13.17-4.17,3.92-2.67,7.17-6.67,9.42-11.84h-14.17Z"/>
      <path class="cls-2" d="m162.7,75.93c0-5.75,4.17-11.67,11.51-11.67,6.84,0,11.34,5.75,11.34,11.76s-4.51,11.84-11.59,11.84-11.26-5.5-11.26-11.92m-13.34,23.26h13.26v-4.92h.17c1.75,3.34,6.75,6.5,13.26,6.5,11.76,0,23.35-8.34,23.35-25.01,0-17.51-13.09-24.43-22.76-24.43-1.92,0-8.51,0-13.42,5.25v-19.09h-13.84v61.7Z"/>
      <path class="cls-2" d="m109.9,75.93c0-5.75,4.17-11.67,11.51-11.67,6.84,0,11.34,5.75,11.34,11.76s-4.5,11.84-11.59,11.84-11.26-5.5-11.26-11.92m-13.34,23.26h13.26v-4.92h.17c1.75,3.34,6.75,6.5,13.26,6.5,11.76,0,23.35-8.34,23.35-25.01,0-17.51-13.09-24.43-22.77-24.43-1.92,0-8.5,0-13.42,5.25v-19.09h-13.84v61.7Z"/>
    </g>
    <path class="cls-2" d="m70.24,79.39h-12.13l5.97-13.25,6.16,13.25Zm25.28,19.89l-31.53-61.82-31.53,61.82h16.55l4.04-8.49h21.87l4.05,8.49h16.54Z"/>
  </g>
</svg>